<svg height='300px' width='300px'  fill="#000000" xmlns="http://www.w3.org/2000/svg" viewBox="0 0 96 96" x="0px" y="0px"><defs><style>.cls-1{fill:#000000;}</style></defs><title>Blockchain_3</title><g data-name="Your Icons"><path class="cls-1" d="M39.37,19.43l9,5.21.09.07a1,1,0,0,0,.5.13h0a1,1,0,0,0,.5-.13l.09-.07,9-5.21a1,1,0,0,0,.5-.87V8.07a1,1,0,0,0-.5-.86.64.64,0,0,0-.19-.08l-9-5.19a1,1,0,0,0-1,0L39.37,7.19a1,1,0,0,0-.5.87h0V18.56A1,1,0,0,0,39.37,19.43ZM57.12,18,50,22.09V13.91L57.12,9.8ZM49,4l7.14,4.12-1.15.66L49,12.18,41.87,8.06ZM40.87,9.8,48,13.91v8.18L40.87,18Z"></path><path class="cls-1" d="M58.62,75.69a.7.7,0,0,0-.2-.08l-9-5.18a1,1,0,0,0-1,0l-9.08,5.24a1,1,0,0,0-.5.87h0V87.05a1,1,0,0,0,.5.86l9,5.21.09.07a1,1,0,0,0,.5.14h0a1,1,0,0,0,.5-.14l.09-.07,9-5.21a1,1,0,0,0,.5-.86V76.56A1,1,0,0,0,58.62,75.69ZM48,90.58l-7.11-4.11V78.29L48,82.4Zm1-9.92-7.14-4.12L49,72.45l7.14,4.12Zm8.11,5.81L50,90.58V82.4l7.11-4.11Z"></path><path class="cls-1" d="M4.41,37.94l9,5.21a.71.71,0,0,0,.09.07,1,1,0,0,0,.5.13h0a1,1,0,0,0,.5-.13.71.71,0,0,0,.09-.07l9-5.21a1,1,0,0,0,.5-.87V26.58a1,1,0,0,0-.5-.86.84.84,0,0,0-.2-.08l-9-5.18a1,1,0,0,0-1,0L4.41,25.7a1,1,0,0,0-.5.87h0V37.07A1,1,0,0,0,4.41,37.94ZM22.17,36.5l-7.12,4.1V32.42l7.12-4.1ZM14,22.48l7.14,4.12-7.09,4.09L6.91,26.57ZM5.91,28.32,13,32.42V40.6L5.91,36.5Z"></path><path class="cls-1" d="M24.17,68.1V57.61a1,1,0,0,0-.5-.86l-.2-.09-9-5.17a1,1,0,0,0-1,0L4.41,56.73a1,1,0,0,0-.5.87h0V68.1a1,1,0,0,0,.5.87l9,5.21a.71.71,0,0,0,.09.07,1,1,0,0,0,.5.13h0a1,1,0,0,0,.5-.13.71.71,0,0,0,.09-.07l9-5.21A1,1,0,0,0,24.17,68.1ZM13,71.63l-7.12-4.1V59.35L13,63.45Zm1-9.91L6.91,57.6,14,53.51l7.14,4.12Zm8.12,5.81-7.12,4.1V63.45l7.12-4.1Z"></path><path class="cls-1" d="M94.08,26.57a1,1,0,0,0-.5-.87l-9.09-5.24a1,1,0,0,0-1,0l-9,5.18a.7.7,0,0,0-.2.08,1,1,0,0,0-.5.86V37.07a1,1,0,0,0,.5.87l9,5.21.08.07a1,1,0,0,0,.5.13h0a1,1,0,0,0,.5-.13l.09-.07,9-5.21a1,1,0,0,0,.5-.87V26.58h0Zm-11.15,14-7.11-4.1V28.32l7.11,4.1Zm1-9.91L76.85,26.6,84,22.48l7.09,4.09Zm8.15,5.81L85,40.6V32.42l7.12-4.1Z"></path><path class="cls-1" d="M93.58,56.73l-9.09-5.24a1,1,0,0,0-1,0l-9,5.17a1.21,1.21,0,0,0-.2.09,1,1,0,0,0-.5.86V68.1a1,1,0,0,0,.5.87l9,5.21.08.07a1,1,0,0,0,.5.13h0a1,1,0,0,0,.5-.13l.09-.07,9-5.21a1,1,0,0,0,.5-.87V57.61h0A1,1,0,0,0,93.58,56.73ZM82.93,71.63l-7.11-4.1V59.35l7.11,4.1Zm1-9.91-7.08-4.09L84,53.51l7.09,4.09Zm8.15,5.81L85,71.63V63.45l7.12-4.1Z"></path><path class="cls-1" d="M68.22,18.64a.47.47,0,0,0,.25.07.5.5,0,1,0-.25-.07Z"></path><path class="cls-1" d="M63,15.64a.43.43,0,0,0,.25.07.5.5,0,1,0-.44-.75A.49.49,0,0,0,63,15.64Z"></path><path class="cls-1" d="M75.15,22.64a.45.45,0,0,0,.25.07.5.5,0,1,0-.25-.07Z"></path><path class="cls-1" d="M71.68,20.64a.47.47,0,0,0,.25.07A.5.5,0,1,0,71.5,20,.51.51,0,0,0,71.68,20.64Z"></path><path class="cls-1" d="M66.49,17.64a.45.45,0,0,0,.25.07.5.5,0,0,0,.25-.93.5.5,0,1,0-.5.86Z"></path><path class="cls-1" d="M73.42,21.64a.43.43,0,0,0,.25.07.5.5,0,0,0,.25-.93.5.5,0,1,0-.5.86Z"></path><path class="cls-1" d="M70,19.64a.47.47,0,0,0,.25.07.52.52,0,0,0,.44-.25.51.51,0,0,0-.19-.68.5.5,0,0,0-.5.86Z"></path><path class="cls-1" d="M61.29,14.64a.47.47,0,0,0,.25.07.48.48,0,0,0,.43-.25.5.5,0,1,0-.68.18Z"></path><path class="cls-1" d="M64.76,16.64a.45.45,0,0,0,.25.07.5.5,0,0,0,.25-.93.5.5,0,1,0-.5.86Z"></path><path class="cls-1" d="M76.88,23.64a.45.45,0,0,0,.25.07.5.5,0,1,0-.25-.07Z"></path><path class="cls-1" d="M59.56,13.64a.47.47,0,0,0,.25.07.5.5,0,1,0-.25-.07Z"></path><path class="cls-1" d="M83.94,46.89a.5.5,0,0,0,.5-.51.49.49,0,0,0-.5-.49.5.5,0,0,0-.5.49A.51.51,0,0,0,83.94,46.89Z"></path><path class="cls-1" d="M83.94,44.88a.49.49,0,0,0,.5-.49.5.5,0,0,0-.5-.51.51.51,0,0,0-.5.51A.5.5,0,0,0,83.94,44.88Z"></path><path class="cls-1" d="M83.94,50.88a.5.5,0,1,0,0-1,.5.5,0,1,0,0,1Z"></path><path class="cls-1" d="M83.94,48.89a.51.51,0,0,0,0-1,.51.51,0,0,0,0,1Z"></path><path class="cls-1" d="M59.6,81a.5.5,0,0,0,.25.93.47.47,0,0,0,.25-.07.5.5,0,0,0-.5-.86Z"></path><path class="cls-1" d="M71.72,74a.49.49,0,0,0-.18.68.5.5,0,0,0,.44.25.42.42,0,0,0,.24-.07.5.5,0,1,0-.5-.86Z"></path><path class="cls-1" d="M61.33,80a.5.5,0,0,0,.25.93.45.45,0,0,0,.25-.07.5.5,0,0,0-.5-.86Z"></path><path class="cls-1" d="M70,75a.5.5,0,0,0,.25.93.45.45,0,0,0,.25-.07A.5.5,0,1,0,70,75Z"></path><path class="cls-1" d="M75.19,72a.5.5,0,0,0-.19.68.51.51,0,0,0,.44.25.47.47,0,0,0,.25-.07.5.5,0,1,0-.5-.86Z"></path><path class="cls-1" d="M73.46,73a.5.5,0,0,0,.25.93.42.42,0,0,0,.24-.07.49.49,0,1,0-.49-.86Z"></path><path class="cls-1" d="M66.53,77a.5.5,0,0,0,.25.93.47.47,0,0,0,.25-.07.5.5,0,0,0-.5-.86Z"></path><path class="cls-1" d="M68.26,76a.5.5,0,0,0,.25.93.47.47,0,0,0,.25-.07.5.5,0,0,0-.5-.86Z"></path><path class="cls-1" d="M64.8,78a.49.49,0,0,0-.19.68.5.5,0,0,0,.44.25.47.47,0,0,0,.25-.07.5.5,0,0,0,.18-.68A.5.5,0,0,0,64.8,78Z"></path><path class="cls-1" d="M63.06,79a.5.5,0,0,0,.25.93.45.45,0,0,0,.25-.07.5.5,0,1,0-.5-.86Z"></path><path class="cls-1" d="M76.92,71a.5.5,0,0,0,.25.93.45.45,0,0,0,.25-.07.5.5,0,0,0-.5-.86Z"></path><path class="cls-1" d="M28,75a.5.5,0,1,0-.5.86.42.42,0,0,0,.24.07A.5.5,0,0,0,28,75Z"></path><path class="cls-1" d="M29.76,76a.5.5,0,1,0-.5.86.45.45,0,0,0,.25.07.5.5,0,0,0,.25-.93Z"></path><path class="cls-1" d="M21.1,71a.5.5,0,1,0-.5.86.45.45,0,0,0,.25.07A.5.5,0,0,0,21.1,71Z"></path><path class="cls-1" d="M31.49,77a.5.5,0,1,0-.5.86.45.45,0,0,0,.25.07.5.5,0,0,0,.25-.93Z"></path><path class="cls-1" d="M26.29,74a.5.5,0,1,0-.5.86.47.47,0,0,0,.25.07.51.51,0,0,0,.44-.25A.49.49,0,0,0,26.29,74Z"></path><path class="cls-1" d="M24.56,73a.5.5,0,1,0-.5.86.47.47,0,0,0,.25.07.5.5,0,0,0,.25-.93Z"></path><path class="cls-1" d="M33.22,78a.5.5,0,1,0-.5.86.47.47,0,0,0,.25.07.5.5,0,0,0,.25-.93Z"></path><path class="cls-1" d="M22.83,72a.5.5,0,1,0-.5.86.45.45,0,0,0,.25.07.5.5,0,0,0,.25-.93Z"></path><path class="cls-1" d="M36.69,80a.5.5,0,1,0-.5.86.43.43,0,0,0,.25.07.5.5,0,0,0,.25-.93Z"></path><path class="cls-1" d="M35,79a.5.5,0,1,0-.5.86.47.47,0,0,0,.25.07A.5.5,0,0,0,35,79Z"></path><path class="cls-1" d="M38.42,81a.5.5,0,1,0-.5.86.45.45,0,0,0,.25.07.5.5,0,0,0,.25-.93Z"></path><circle class="cls-1" cx="14.04" cy="48.34" r="0.5"></circle><circle class="cls-1" cx="14.04" cy="44.34" r="0.5"></circle><circle class="cls-1" cx="14.04" cy="50.34" r="0.5"></circle><circle class="cls-1" cx="14.04" cy="46.34" r="0.5"></circle><path class="cls-1" d="M20.84,23.71a.58.58,0,0,0,.26-.06.51.51,0,0,0,.18-.69.5.5,0,1,0-.44.75Z"></path><path class="cls-1" d="M22.57,22.71a.54.54,0,0,0,.25-.06.5.5,0,1,0-.5-.87.5.5,0,0,0,.25.93Z"></path><path class="cls-1" d="M33,16.73a.59.59,0,0,0,.25-.07.5.5,0,0,0,.18-.68.51.51,0,0,0-.68-.19.52.52,0,0,0-.19.69A.51.51,0,0,0,33,16.73Z"></path><path class="cls-1" d="M29.49,18.72a.57.57,0,0,0,.25-.06.51.51,0,0,0,.18-.69.5.5,0,1,0-.43.75Z"></path><path class="cls-1" d="M34.68,15.73a.47.47,0,0,0,.25-.07.5.5,0,1,0-.5-.86.49.49,0,0,0-.19.68A.5.5,0,0,0,34.68,15.73Z"></path><path class="cls-1" d="M31.22,17.72a.57.57,0,0,0,.25-.06.5.5,0,1,0-.69-.19A.52.52,0,0,0,31.22,17.72Z"></path><path class="cls-1" d="M27.76,19.72a.47.47,0,0,0,.25-.07.49.49,0,1,0-.25.07Z"></path><path class="cls-1" d="M24.3,21.72a.45.45,0,0,0,.25-.07.51.51,0,0,0,.19-.68.52.52,0,0,0-.69-.19.51.51,0,0,0-.18.69A.5.5,0,0,0,24.3,21.72Z"></path><path class="cls-1" d="M38.14,13.73a.53.53,0,0,0,.24-.06.52.52,0,0,0,.19-.69.51.51,0,0,0-.69-.18.49.49,0,0,0-.18.68A.5.5,0,0,0,38.14,13.73Z"></path><path class="cls-1" d="M26,20.72a.45.45,0,0,0,.25-.07.49.49,0,1,0-.25.07Z"></path><path class="cls-1" d="M36.41,14.73a.42.42,0,0,0,.24-.07.49.49,0,1,0-.24.07Z"></path><path class="cls-1" d="M25.22,37.11a.5.5,0,0,0-.61.36.5.5,0,0,0,.35.61l.13,0a.52.52,0,0,0,.49-.37A.51.51,0,0,0,25.22,37.11Z"></path><path class="cls-1" d="M36.81,40.25a.49.49,0,0,0-.62.35.5.5,0,0,0,.36.61l.12,0a.5.5,0,0,0,.14-1Z"></path><path class="cls-1" d="M30.75,39.65h.13A.5.5,0,1,0,30.4,39,.52.52,0,0,0,30.75,39.65Z"></path><path class="cls-1" d="M32.68,40.17l.14,0a.5.5,0,0,0,.12-1,.5.5,0,0,0-.61.35A.52.52,0,0,0,32.68,40.17Z"></path><path class="cls-1" d="M26.89,38.6l.13,0a.52.52,0,0,0,.49-.37.5.5,0,0,0-.36-.61.49.49,0,0,0-.61.35A.5.5,0,0,0,26.89,38.6Z"></path><path class="cls-1" d="M28.82,39.12a.32.32,0,0,0,.13,0,.51.51,0,0,0,.49-.37.5.5,0,0,0-.36-.61.49.49,0,0,0-.61.35A.5.5,0,0,0,28.82,39.12Z"></path><path class="cls-1" d="M34.88,39.72a.51.51,0,0,0-.62.36.5.5,0,0,0,.36.61l.13,0a.5.5,0,0,0,.48-.37A.52.52,0,0,0,34.88,39.72Z"></path><path class="cls-1" d="M49,29.34a.5.5,0,0,0,0,1h0a.49.49,0,0,0,.49-.5A.49.49,0,0,0,49,29.34Z"></path><path class="cls-1" d="M49,33.34a.5.5,0,0,0,0,1h0a.5.5,0,1,0,0-1Z"></path><path class="cls-1" d="M49,25.34a.51.51,0,0,0-.51.5.5.5,0,0,0,.5.5h0a.5.5,0,0,0,0-1Z"></path><path class="cls-1" d="M49,31.34a.5.5,0,0,0,0,1h0a.5.5,0,0,0,0-1Z"></path><path class="cls-1" d="M49,27.34a.5.5,0,0,0,0,1h0a.5.5,0,0,0,0-1Z"></path><path class="cls-1" d="M49,65.87a.49.49,0,0,0,.5-.49.5.5,0,1,0-1,0A.5.5,0,0,0,49,65.87Z"></path><path class="cls-1" d="M49,67.87a.5.5,0,1,0-.5-.5A.5.5,0,0,0,49,67.87Z"></path><path class="cls-1" d="M49,69.87a.49.49,0,0,0,.5-.49.5.5,0,1,0-.5.49Z"></path><path class="cls-1" d="M49,61.87a.5.5,0,1,0,0-1,.49.49,0,0,0-.5.49A.49.49,0,0,0,49,61.87Z"></path><path class="cls-1" d="M49,63.87a.49.49,0,0,0,.5-.49.5.5,0,1,0-1,0A.5.5,0,0,0,49,63.87Z"></path><path class="cls-1" d="M49,59.87h0a.5.5,0,1,0,0-1,.5.5,0,1,0,0,1Z"></path><path class="cls-1" d="M24.51,56.65a.49.49,0,0,0-.31.63.48.48,0,0,0,.47.34l.16,0a.52.52,0,0,0,.32-.64A.51.51,0,0,0,24.51,56.65Z"></path><path class="cls-1" d="M34.64,53.82a.5.5,0,0,0-.63-.31.49.49,0,0,0-.32.63.5.5,0,0,0,.48.34l.15,0A.52.52,0,0,0,34.64,53.82Z"></path><path class="cls-1" d="M36.22,53.83a.5.5,0,1,0-.31-.95.5.5,0,0,0,.15,1A.41.41,0,0,0,36.22,53.83Z"></path><path class="cls-1" d="M38,53.22a.44.44,0,0,0,.16,0,.51.51,0,0,0,.32-.63.5.5,0,0,0-.63-.32.5.5,0,0,0,.15,1Z"></path><path class="cls-1" d="M26.41,56a.5.5,0,0,0,.16,1,.47.47,0,0,0,.16,0,.5.5,0,0,0,.31-.64A.49.49,0,0,0,26.41,56Z"></path><path class="cls-1" d="M32.74,54.45a.51.51,0,0,0-.63-.32.52.52,0,0,0-.32.64.5.5,0,0,0,.48.34.4.4,0,0,0,.15,0A.5.5,0,0,0,32.74,54.45Z"></path><path class="cls-1" d="M28.31,55.39a.5.5,0,0,0,.16,1l.15,0a.49.49,0,0,0,.32-.63A.5.5,0,0,0,28.31,55.39Z"></path><path class="cls-1" d="M30.84,55.08a.5.5,0,1,0-.95.31.51.51,0,0,0,.48.35l.15,0A.49.49,0,0,0,30.84,55.08Z"></path><path class="cls-1" d="M70.5,38.25a.5.5,0,0,0,.48.37l.13,0a.5.5,0,0,0,.36-.61.5.5,0,0,0-1,.26Z"></path><path class="cls-1" d="M68.57,38.77a.5.5,0,0,0,.48.37.27.27,0,0,0,.13,0,.5.5,0,1,0-.61-.35Z"></path><path class="cls-1" d="M65.06,39.2a.51.51,0,0,0-.35.62.49.49,0,0,0,.48.36h.13a.5.5,0,0,0-.26-1Z"></path><path class="cls-1" d="M67,38.68a.5.5,0,0,0-.35.61.49.49,0,0,0,.48.37h.13a.5.5,0,0,0-.26-1Z"></path><path class="cls-1" d="M73.05,38.08a.5.5,0,0,0,.35-.61.5.5,0,1,0-1,.26.5.5,0,0,0,.48.37Z"></path><path class="cls-1" d="M63.26,40.71l.13,0a.49.49,0,0,0,.35-.61.5.5,0,0,0-.61-.36.51.51,0,0,0-.35.62A.5.5,0,0,0,63.26,40.71Z"></path><path class="cls-1" d="M59.53,41.74a.51.51,0,0,0,.35-.62.49.49,0,0,0-.93-.06.92.92,0,0,0-.33-.32.7.7,0,0,0-.2-.08l-9-5.18a1,1,0,0,0-.41-.12l-.09,0-.08,0a.89.89,0,0,0-.42.12l-9.08,5.24a1.15,1.15,0,0,0-.32.3.49.49,0,0,0-.31-.25.51.51,0,0,0-.62.35.5.5,0,0,0,.36.61.3.3,0,0,0,.13,0,.48.48,0,0,0,.26-.09V52.1a1,1,0,0,0,.5.86l9,5.21.09.07a1,1,0,0,0,.5.14h0a1,1,0,0,0,.5-.14l.09-.07,9-5.21a1,1,0,0,0,.5-.86V41.65a.48.48,0,0,0,.28.1ZM48,55.63l-7.11-4.11V43.34L48,47.45Zm1-9.92-7.14-4.12L49,37.5l7.14,4.12Zm8.11,5.81L50,55.63V47.45l7.11-4.11Z"></path><path class="cls-1" d="M61.46,41.21a.5.5,0,1,0-.26-1,.49.49,0,0,0-.35.61.5.5,0,0,0,.48.37Z"></path><path class="cls-1" d="M71.91,56.65a.5.5,0,1,0-1-.31.51.51,0,0,0,.32.63l.16,0A.49.49,0,0,0,71.91,56.65Z"></path><path class="cls-1" d="M70,56a.49.49,0,0,0-.32-.63.5.5,0,0,0-.63.32.51.51,0,0,0,.32.63.45.45,0,0,0,.16,0A.5.5,0,0,0,70,56Z"></path><path class="cls-1" d="M62.1,52.88a.5.5,0,0,0-.31.95.39.39,0,0,0,.15,0,.5.5,0,0,0,.16-1Z"></path><path class="cls-1" d="M67.8,54.76a.52.52,0,0,0-.64.32.51.51,0,0,0,.32.63.45.45,0,0,0,.16,0,.5.5,0,0,0,.16-1Z"></path><path class="cls-1" d="M73.81,57.28a.49.49,0,0,0-.32-.63.5.5,0,0,0-.63.31.52.52,0,0,0,.32.64l.16,0A.49.49,0,0,0,73.81,57.28Z"></path><path class="cls-1" d="M60.2,52.25a.5.5,0,1,0-.31,1,.41.41,0,0,0,.16,0,.5.5,0,0,0,.15-1Z"></path><path class="cls-1" d="M64,53.51a.49.49,0,0,0-.63.31.5.5,0,0,0,.32.64l.15,0a.5.5,0,0,0,.16-1Z"></path><path class="cls-1" d="M65.9,54.13a.5.5,0,0,0-.63.32.49.49,0,0,0,.31.63l.16,0a.5.5,0,0,0,.48-.34A.52.52,0,0,0,65.9,54.13Z"></path></g></svg>